<?xml version="1.0" encoding="iso-8859-1"?>
<!-- Generator: Adobe Illustrator 19.0.0, SVG Export Plug-In . SVG Version: 6.00 Build 0)  -->
<svg version="1.1" id="Layer_1" xmlns="http://www.w3.org/2000/svg" xmlns:xlink="http://www.w3.org/1999/xlink" x="0px" y="0px"
	 viewBox="0 0 512 512" style="enable-background:new 0 0 512 512;" xml:space="preserve">
<circle style="fill:#263A7A;" cx="256" cy="256" r="256"/>
<path style="fill:#121149;" d="M90.984,335.131l175.973,176.621c117.538-4.951,214.564-89.143,239.054-200.542l-87.174-85.564
	L90.984,335.131z"/>
<path style="fill:#71E2EF;" d="M359.112,354.263c43.201,0,78.222-35.021,78.222-78.222c0-40.908-31.41-74.462-71.423-77.91
	c-3.448-40.015-37.002-71.423-77.91-71.423c-32.409,0-60.213,19.709-72.083,47.795c-5.36-1.439-10.99-2.22-16.806-2.22
	c-34.514,0-62.707,27.05-64.546,61.104c-33.13,0.295-59.899,27.231-59.899,60.432c0,33.382,27.062,60.445,60.445,60.445H359.112
	L359.112,354.263z"/>
<path style="fill:#38C6D9;" d="M365.909,198.13c-3.448-40.015-37.002-71.423-77.91-71.423c-1.289,0-2.569,0.043-3.843,0.103v227.452
	h74.954c43.201,0,78.222-35.021,78.222-78.222C437.334,235.132,405.925,201.578,365.909,198.13z"/>
<polygon style="fill:#FFFFFF;" points="341.333,241.778 284.444,181.438 227.556,241.778 256,241.778 256,312.889 312.889,312.889 
	312.889,241.778 "/>
<polygon style="fill:#EDEDED;" points="284.444,181.438 284.158,181.743 284.158,312.889 312.889,312.889 312.889,241.778 
	341.333,241.778 "/>
<g>
</g>
<g>
</g>
<g>
</g>
<g>
</g>
<g>
</g>
<g>
</g>
<g>
</g>
<g>
</g>
<g>
</g>
<g>
</g>
<g>
</g>
<g>
</g>
<g>
</g>
<g>
</g>
<g>
</g>
</svg>
