<?xml version="1.0" encoding="iso-8859-1"?>
<!-- Generator: Adobe Illustrator 19.0.0, SVG Export Plug-In . SVG Version: 6.00 Build 0)  -->
<svg version="1.1" id="Layer_1" xmlns="http://www.w3.org/2000/svg" xmlns:xlink="http://www.w3.org/1999/xlink" x="0px" y="0px"
	 viewBox="0 0 297 297" style="enable-background:new 0 0 297 297;" xml:space="preserve">
<g>
	<g id="XMLID_46_">
		<g>
			<path style="fill:#3498DB;" d="M225.43,123.58c28.4,0,51.51,23.11,51.51,51.51s-23.11,51.51-51.51,51.51H71.58
				c-28.4,0-51.51-23.11-51.51-51.51s23.11-51.51,51.51-51.51c3.28,0,6.6,0.33,9.87,0.96c2.63,0.52,5.36-0.05,7.58-1.56
				c2.21-1.52,3.73-3.85,4.21-6.49c4.85-26.71,28.09-46.09,55.26-46.09c27.18,0,50.42,19.38,55.27,46.09
				c0.48,2.64,1.99,4.97,4.21,6.49c2.21,1.51,4.94,2.08,7.58,1.56C218.83,123.91,222.15,123.58,225.43,123.58z"/>
			<path d="M225.43,103.52c39.46,0,71.57,32.1,71.57,71.57s-32.11,71.57-71.57,71.57H71.58C32.11,246.66,0,214.56,0,175.09
				s32.11-71.57,71.58-71.57c1.39,0,2.8,0.04,4.2,0.12c9.85-31.39,39.06-53.3,72.72-53.3s62.88,21.91,72.73,53.3
				C222.63,103.56,224.03,103.52,225.43,103.52z M276.94,175.09c0-28.4-23.11-51.51-51.51-51.51c-3.28,0-6.6,0.33-9.87,0.96
				c-2.64,0.52-5.37-0.05-7.58-1.56c-2.22-1.52-3.73-3.85-4.21-6.49c-4.85-26.71-28.09-46.09-55.27-46.09
				c-27.17,0-50.41,19.38-55.26,46.09c-0.48,2.64-2,4.97-4.21,6.49c-2.22,1.51-4.95,2.08-7.58,1.56c-3.27-0.63-6.59-0.96-9.87-0.96
				c-28.4,0-51.51,23.11-51.51,51.51s23.11,51.51,51.51,51.51h153.85C253.83,226.6,276.94,203.49,276.94,175.09z"/>
		</g>
	</g>
</g>
<g>
</g>
<g>
</g>
<g>
</g>
<g>
</g>
<g>
</g>
<g>
</g>
<g>
</g>
<g>
</g>
<g>
</g>
<g>
</g>
<g>
</g>
<g>
</g>
<g>
</g>
<g>
</g>
<g>
</g>
</svg>
