<?xml version="1.0" encoding="iso-8859-1"?>
<!-- Generator: Adobe Illustrator 19.0.0, SVG Export Plug-In . SVG Version: 6.00 Build 0)  -->
<svg version="1.1" id="Layer_1" xmlns="http://www.w3.org/2000/svg" xmlns:xlink="http://www.w3.org/1999/xlink" x="0px" y="0px"
	 viewBox="0 0 297 297" style="enable-background:new 0 0 297 297;" xml:space="preserve">
<g>
	<g id="XMLID_9_">
		<g>
			<path style="fill:#3498DB;" d="M225.43,123.58c28.4,0,51.51,23.11,51.51,51.51s-23.11,51.51-51.51,51.51H71.58
				c-28.4,0-51.51-23.11-51.51-51.51s23.11-51.51,51.51-51.51c3.28,0,6.6,0.33,9.87,0.96c2.63,0.52,5.36-0.05,7.58-1.56
				c2.21-1.52,3.73-3.85,4.21-6.49c4.85-26.71,28.09-46.09,55.26-46.09c27.18,0,50.42,19.38,55.27,46.09
				c0.48,2.64,1.99,4.97,4.21,6.49c2.21,1.51,4.94,2.08,7.58,1.56C218.83,123.91,222.15,123.58,225.43,123.58z M216.48,167.23
				c0-3.07-1.4-5.97-3.81-7.87l-41.93-33.12c-4.35-3.43-10.66-2.69-14.09,1.66s-2.69,10.66,1.66,14.09l31.95,25.24l-31.95,25.24
				c-4.35,3.43-5.09,9.74-1.66,14.09c1.98,2.51,4.92,3.81,7.88,3.81c2.18,0,4.37-0.7,6.21-2.15l41.93-33.12
				C215.08,173.2,216.48,170.3,216.48,167.23z M138.7,141.99c4.35-3.43,5.09-9.74,1.66-14.09c-3.44-4.35-9.75-5.09-14.1-1.66
				l-41.92,33.12c-2.41,1.9-3.82,4.8-3.82,7.87c0,3.07,1.41,5.97,3.82,7.87l41.92,33.12c1.84,1.45,4.04,2.16,6.21,2.15
				c2.97,0,5.91-1.3,7.89-3.81c3.43-4.35,2.69-10.66-1.66-14.09l-31.95-25.24L138.7,141.99z"/>
			<path d="M225.43,103.52c39.46,0,71.57,32.1,71.57,71.57s-32.11,71.57-71.57,71.57H71.58C32.11,246.66,0,214.56,0,175.09
				s32.11-71.57,71.58-71.57c1.39,0,2.8,0.04,4.2,0.12c9.85-31.39,39.06-53.3,72.72-53.3s62.88,21.91,72.73,53.3
				C222.63,103.56,224.03,103.52,225.43,103.52z M276.94,175.09c0-28.4-23.11-51.51-51.51-51.51c-3.28,0-6.6,0.33-9.87,0.96
				c-2.64,0.52-5.37-0.05-7.58-1.56c-2.22-1.52-3.73-3.85-4.21-6.49c-4.85-26.71-28.09-46.09-55.27-46.09
				c-27.17,0-50.41,19.38-55.26,46.09c-0.48,2.64-2,4.97-4.21,6.49c-2.22,1.51-4.95,2.08-7.58,1.56c-3.27-0.63-6.59-0.96-9.87-0.96
				c-28.4,0-51.51,23.11-51.51,51.51s23.11,51.51,51.51,51.51h153.85C253.83,226.6,276.94,203.49,276.94,175.09z"/>
			<path d="M212.67,159.36c2.41,1.9,3.81,4.8,3.81,7.87c0,3.07-1.4,5.97-3.81,7.87l-41.93,33.12c-1.84,1.45-4.03,2.15-6.21,2.15
				c-2.96,0-5.9-1.3-7.88-3.81c-3.43-4.35-2.69-10.66,1.66-14.09l31.95-25.24l-31.95-25.24c-4.35-3.43-5.09-9.74-1.66-14.09
				c3.43-4.35,9.74-5.09,14.09-1.66L212.67,159.36z"/>
			<path d="M140.36,127.9c3.43,4.35,2.69,10.66-1.66,14.09l-31.95,25.24l31.95,25.24c4.35,3.43,5.09,9.74,1.66,14.09
				c-1.98,2.51-4.92,3.81-7.89,3.81c-2.17,0.01-4.37-0.7-6.21-2.15L84.34,175.1c-2.41-1.9-3.82-4.8-3.82-7.87
				c0-3.07,1.41-5.97,3.82-7.87l41.92-33.12C130.61,122.81,136.92,123.55,140.36,127.9z"/>
		</g>
	</g>
</g>
<g>
</g>
<g>
</g>
<g>
</g>
<g>
</g>
<g>
</g>
<g>
</g>
<g>
</g>
<g>
</g>
<g>
</g>
<g>
</g>
<g>
</g>
<g>
</g>
<g>
</g>
<g>
</g>
<g>
</g>
</svg>
