<?xml version="1.0" encoding="iso-8859-1"?>
<!-- Generator: Adobe Illustrator 19.0.0, SVG Export Plug-In . SVG Version: 6.00 Build 0)  -->
<svg version="1.1" id="Layer_1" xmlns="http://www.w3.org/2000/svg" xmlns:xlink="http://www.w3.org/1999/xlink" x="0px" y="0px"
	 viewBox="0 0 512 512" style="enable-background:new 0 0 512 512;" xml:space="preserve">
<circle style="fill:#71E2EF;" cx="256" cy="256" r="256"/>
<path style="fill:#38C6D9;" d="M512,256c0-6.113-0.229-12.171-0.65-18.177L393.285,120.001l-274.91,271.326L238.437,511.39
	c5.804,0.393,11.659,0.61,17.563,0.61C397.384,512,512,397.384,512,256z"/>
<path style="fill:#2D2D2D;" d="M379.259,398.222H132.741c-10.473,0-18.963-8.49-18.963-18.963V132.741
	c0-10.473,8.49-18.963,18.963-18.963h246.519c10.473,0,18.963,8.49,18.963,18.963v246.519
	C398.222,389.732,389.732,398.222,379.259,398.222z"/>
<path style="fill:#191919;" d="M379.259,113.778H255.426v284.444h123.833c10.473,0,18.963-8.49,18.963-18.963V132.741
	C398.222,122.268,389.732,113.778,379.259,113.778z"/>
<rect x="170.667" y="113.778" style="fill:#6D6D6D;" width="170.667" height="85.333"/>
<rect x="170.667" y="227.556" style="fill:#E2E2E2;" width="170.667" height="142.222"/>
<rect x="255.431" y="227.556" style="fill:#C6C6C6;" width="85.907" height="142.222"/>
<rect x="256" y="113.778" style="fill:#A0A0A0;" width="85.333" height="85.333"/>
<rect x="272.808" y="125.845" style="fill:#6D6D6D;" width="28.444" height="56.889"/>
<g>
</g>
<g>
</g>
<g>
</g>
<g>
</g>
<g>
</g>
<g>
</g>
<g>
</g>
<g>
</g>
<g>
</g>
<g>
</g>
<g>
</g>
<g>
</g>
<g>
</g>
<g>
</g>
<g>
</g>
</svg>
