<svg xmlns="http://www.w3.org/2000/svg" x="0px" y="0px"
	 viewBox="0 0 512 512">
<g>
	<circle fill="#523852" cx="256" cy="256" r="256"/>
	<path fill="#220B22" d="M503.781,191.457l-78.352-60.578v27.598h-38v115h-260v28h-45l-0.5,63.168l205.809,144.867l-0.328,0.5
		C413.965,494.516,512,386.742,512,256C512,233.703,509.137,212.078,503.781,191.457z"/>
	<g>
		<g>
			<path fill="#26A9E0" d="M433.953,354.891c0,7.559-5.531,13.742-12.273,13.742H90.492c-6.734,0-12.266-6.184-12.266-13.742V144.18
				c0-7.559,5.531-13.742,12.266-13.742H421.68c6.742,0,12.273,6.184,12.273,13.742V354.891z"/>
		</g>
		<g>
			<g>
				<path fill="#354C59" d="M268.555,280.211c-6.086,4.809-16.086,4.867-22.227,0.137L78.227,150.609v27.484l168.102,129.73
					c6.141,4.738,16.141,4.68,22.227-0.129l165.398-130.586v-27.488L268.555,280.211z"/>
			</g>
			<path fill="#EBEBEB" d="M421.68,130.438H90.492c-6.734,0-12.266,6.184-12.266,13.742v6.43l168.102,129.738
				c6.141,4.73,16.141,4.672,22.227-0.137l165.398-130.59v-5.441C433.953,136.621,428.422,130.438,421.68,130.438z"/>
		</g>
	</g>
</g>
</svg>
