<?xml version="1.0" encoding="iso-8859-1"?>
<!-- Generator: Adobe Illustrator 19.0.0, SVG Export Plug-In . SVG Version: 6.00 Build 0)  -->
<svg version="1.1" id="Layer_1" xmlns="http://www.w3.org/2000/svg" xmlns:xlink="http://www.w3.org/1999/xlink" x="0px" y="0px"
	 viewBox="0 0 512 512" style="enable-background:new 0 0 512 512;" xml:space="preserve">
<path style="fill:#8A8A91;" d="M256,162.948c-9.129,0-16.53-7.401-16.53-16.53v-34.21c-22.708-7.062-39.245-28.274-39.245-53.276
	c0-30.755,25.021-55.776,55.775-55.776c30.755,0,55.776,25.021,55.776,55.776c0,9.129-7.401,16.53-16.53,16.53
	s-16.53-7.401-16.53-16.53c0-12.525-10.19-22.716-22.716-22.716c-12.524,0-22.715,10.19-22.715,22.716S243.475,81.648,256,81.648
	c9.129,0,16.53,7.401,16.53,16.53v48.239C272.53,155.547,265.129,162.948,256,162.948z"/>
<path style="fill:#3F3F3F;" d="M486.407,202.191c17.318,5.411,27.901,22.357,25.163,40.293
	c-2.735,17.934-17.89,30.953-36.035,30.953H36.463c-18.142,0-33.297-13.018-36.035-30.953c-2.735-17.936,7.846-34.882,25.163-40.293
	l225.477-70.45c3.211-1.003,6.648-1.003,9.86,0L486.407,202.191z M256,164.838l-220.548,68.91c-1.611,0.504-2.595,2.081-2.342,3.75
	c0.255,1.667,1.665,2.88,3.353,2.88h439.072c1.688,0,3.099-1.211,3.353-2.88c0.255-1.671-0.73-3.247-2.342-3.75L256,164.838z"/>
<path style="fill:#F53000;" d="M339.978,287.483c0-4.189-1.87-8.158-5.099-10.826l-69.937-57.771c-5.19-4.288-12.695-4.288-17.886,0
	l-69.936,57.771c-3.229,2.668-5.099,6.637-5.099,10.826v207.319c0,7.755,6.287,14.042,14.042,14.042h139.873
	c7.755,0,14.042-6.287,14.042-14.042V287.483z M256.001,290.358c-13.099,0-23.716-10.618-23.716-23.716
	c0-13.098,10.618-23.716,23.716-23.716s23.716,10.618,23.716,23.716C279.717,279.74,269.098,290.358,256.001,290.358z"/>
<path style="fill:#BF2717;" d="M334.879,276.656l-69.937-57.771c-2.595-2.143-5.769-3.216-8.943-3.216v27.255
	c13.099,0,23.716,10.618,23.716,23.716S269.098,290.358,256,290.358v218.486h69.936c7.755,0,14.042-6.287,14.042-14.042V287.483
	C339.978,283.294,338.109,279.324,334.879,276.656z"/>
<path style="fill:#CFCFCF;" d="M203.698,393.043v-20.5c0-14.291,9.385-19.489,21.653-19.489c12.127,0,21.655,5.197,21.655,19.489
	v20.5c0,14.292-9.528,19.489-21.655,19.489C213.083,412.532,203.698,407.335,203.698,393.043z M232.571,372.545
	c0-4.764-2.743-6.929-7.219-6.929c-4.475,0-7.073,2.165-7.073,6.929v20.5c0,4.764,2.597,6.929,7.073,6.929
	c4.476,0,7.219-2.165,7.219-6.929V372.545z M291.758,354.789c0,0.866-0.144,1.877-0.576,2.743l-50.815,104.084
	c-1.011,2.165-3.753,3.609-6.496,3.609c-4.908,0-8.084-4.042-8.084-7.651c0-0.866,0.289-1.877,0.722-2.743l50.669-104.084
	c1.155-2.454,3.465-3.609,6.063-3.609C287.283,347.138,291.758,350.169,291.758,354.789z M269.96,439.528v-20.5
	c0-14.292,9.384-19.489,21.653-19.489c12.127,0,21.653,5.197,21.653,19.489v20.5c0,14.292-9.528,19.489-21.653,19.489
	C279.343,459.016,269.96,453.819,269.96,439.528z M298.831,419.029c0-4.764-2.743-6.929-7.218-6.929
	c-4.475,0-7.074,2.165-7.074,6.929v20.5c0,4.764,2.599,6.929,7.074,6.929c4.475,0,7.218-2.165,7.218-6.929V419.029z"/>
<path style="fill:#EAE6DD;" d="M281.325,260.921c-2.617,4.398-7.083,7.377-12.147,8.112c-5.065,0.735-10.204-0.851-13.959-4.328
	c-5.548-5.136-6.73-13.418-2.865-19.916c10.467-17.593,27.496-56.063,16.561-107.563c-1.897-8.931,3.806-17.706,12.737-19.603
	c8.927-1.9,17.705,3.806,19.603,12.737C314.322,191.912,295.124,237.733,281.325,260.921z"/>
<g>
</g>
<g>
</g>
<g>
</g>
<g>
</g>
<g>
</g>
<g>
</g>
<g>
</g>
<g>
</g>
<g>
</g>
<g>
</g>
<g>
</g>
<g>
</g>
<g>
</g>
<g>
</g>
<g>
</g>
</svg>
